<?xml version="1.0" encoding="UTF-8"?>
<svg id="Layer_2" data-name="Layer 2" xmlns="http://www.w3.org/2000/svg" viewBox="0 0 437.08 372.63">
  <defs>
    <style>
      .cls-1 {
        fill: #000;
        stroke-width: 0px;
      }
    </style>
  </defs>
  <g id="Layer_1-2" data-name="Layer 1">
    <g>
      <path class="cls-1" d="M109.11,0c6.81,1.15,13.69,2.02,20.43,3.51,32.76,7.23,55.99,27.33,73.55,54.95,2.94,4.62,5.72,9.34,9.04,14.77,1.86-3.07,3.52-5.62,4.98-8.28,15.45-28.05,37.87-48.22,68.58-57.7,39.87-12.31,75.16-4.09,105.13,25.72,10.15,10.09,17.85,21.47,22.46,34.94,3.49,10.19,6.74,20.47,10.16,30.92-3.67,1.86-6.58,1.86-9.56-.51-7.03-5.61-14.5-10.72-21.13-16.76-6.1-5.56-12.12-11.52-16.82-18.25-20.5-29.34-49.02-38.78-83.27-34.81-26.64,3.09-45.22,19.01-60.99,38.96-6.07,7.68-11.01,16.24-16.48,24.4-1.1,1.65-2.22,3.29-3.65,5.4-2.73-4.88-5.15-9.39-7.73-13.79-12.24-20.87-28.67-37.25-50.26-48.67-50.4-26.66-97.93,4.79-114.37,37.9-9.43,19-13.07,39.33-14.58,60.24-2.84,39.15,12.06,69.82,44.16,92.05,28.06,19.43,56.38,38.5,84.64,57.64,17.03,11.54,31.31,25.77,42.94,42.74,4.59,6.69,9.67,13.05,15.01,20.2,3.04-3.98,5.76-7.48,8.39-11.03,1.49-2,2.82-4.13,4.27-6.16,6.72-9.42,12.82-9.97,21.67-1.62-10.54,15.05-21.11,30.15-32.13,45.87-1.24-1.82-2.27-3.19-3.14-4.65-25.98-43.26-62.83-75.07-106.03-99.98-21.71-12.52-42.44-26.39-61.73-42.31C15.29,203.08,1.4,173.55.14,138.23c-1.33-37.54,6.53-72.48,30.98-102.29C47.94,15.44,69.06,2.8,95.93.81c.74-.05,1.45-.53,2.17-.81,3.67,0,7.33,0,11,0Z"/>
      <path class="cls-1" d="M435.11,229c-3.44,11.9-9.6,22.18-18.86,30.41-10.67,9.48-23.61,14.26-37.44,16.29-11.81,1.74-27.28-8.66-27.04-25.43.49-34.15,24.13-58.55,57.55-58.3,11.95.09,21.54,3.7,25.8,16.02q2.63,8.48,0,21Z"/>
      <path class="cls-1" d="M344.66,305.04c-.81,9.94-1.11,19.96-2.57,29.81-1.53,10.38-7.3,14.87-17.81,15.26-19.17.71-36-5.17-50.49-17.85-4.75-4.16-9.8-8-14.76-11.92-7.98-6.3-16.91-9.67-27.24-9.44-5.3.12-10.64-.49-15.94-.96-20.66-1.82-38.22-23.93-33.72-42.82.93-3.91,2.76-8.12,5.45-11.01,18.88-20.31,39.86-37.94,66.35-47.53,14.19-5.14,28.88-8.18,44.07-4.5,8.36,2.03,15.25,6.39,20.32,13.54,17.9,25.3,26.57,53.39,25.78,84.39-.03,1,0,2,0,3,.19.01.37.03.56.04Z"/>
      <path class="cls-1" d="M408.36,123.64c-2.66,28.56-14.39,51.69-40.93,65.68-6.22,3.28-12.85,4.41-19.82,3.69-12.84-1.31-23.05-12.39-22.31-26.27,1.41-26.3,10.88-48.96,33.24-64.59,9.86-6.89,20.48-10.65,32.89-6.62,9.52,3.08,14.87,8.94,15.85,18.85.3,2.98.69,5.94,1.08,9.25Z"/>
      <path class="cls-1" d="M323.25,108.54c.24,18.17-5.57,36.04-19.39,51-10.83,11.72-27.76,11.41-38.03-.73-7.3-8.62-10.04-18.93-11.25-29.85-2.12-19.14.95-37.16,11.93-53.3,2.39-3.52,5.51-6.67,8.74-9.47,16.84-14.58,36.02-3.45,42.16,10.32,4,8.96,5.98,18.79,5.84,32.02Z"/>
      <path class="cls-1" d="M240.23,165.32c.19,14.67-3.3,28.02-13.87,38.82-11.47,11.72-30.23,11.5-41.42-.46-16.82-17.97-16.89-59-.14-76.97,15.99-17.16,41.04-13.34,50.01,8.47,3.83,9.31,2.67,7.03,4.82,17.03.13,1.09,1.04,13.02.59,13.11Z"/>
    </g>
  </g>
</svg>