<?xml version="1.0" encoding="UTF-8"?>
<svg id="Layer_2" data-name="Layer 2" xmlns="http://www.w3.org/2000/svg" viewBox="0 0 762.94 838">
  <defs>
    <style>
      .cls-1 {
        fill: #000;
        stroke-width: 0px;
      }

      .cls-2 {
        stroke-width: .7px;
      }

      .cls-2, .cls-3, .cls-4, .cls-5, .cls-6, .cls-7, .cls-8 {
        fill: none;
        stroke: #000;
        stroke-miterlimit: 10;
      }

      .cls-3 {
        stroke-width: .61px;
      }

      .cls-4 {
        stroke-width: 7px;
      }

      .cls-5 {
        stroke-width: .97px;
      }

      .cls-6 {
        stroke-width: 4px;
      }

      .cls-7 {
        stroke-width: .9px;
      }

      .cls-8 {
        stroke-width: 1.03px;
      }
    </style>
  </defs>
  <g id="Calque_1" data-name="Calque 1">
    <g>
      <g>
        <path class="cls-4" d="M563.84,83.32C512.37,31.85,443.94,3.5,371.15,3.5s-141.22,28.35-192.68,79.82c-51.47,51.46-79.82,119.89-79.82,192.68v286c0,51.34,14.1,100.51,40.48,143.1,11.02,17.79,24.18,34.43,39.34,49.59,51.46,51.47,119.9,79.81,192.68,79.81s141.22-28.34,192.69-79.81c46.97-46.97,74.68-108.07,79.16-173.71.43-6.29.65-12.62.65-18.98v-286c0-72.79-28.34-141.22-79.81-192.68ZM609.65,562c0,13.02-1.04,25.8-3.06,38.26-54.28,26.81-120.05,51.39-192.36,70.54-85.11,22.54-166.09,34.05-233.29,35.1-30.31-39.99-48.29-89.85-48.29-143.9v-286c0-131.72,106.78-238.5,238.5-238.5,65.86,0,125.49,26.7,168.65,69.86,43.16,43.16,69.85,102.78,69.85,168.64v286Z"/>
        <path class="cls-6" d="M609.65,276v286c0,13.02-1.04,25.8-3.06,38.26-54.28,26.81-120.05,51.39-192.36,70.54-85.11,22.54-166.09,34.05-233.29,35.1-30.31-39.99-48.29-89.85-48.29-143.9v-286c0-131.72,106.78-238.5,238.5-238.5,65.86,0,125.49,26.7,168.65,69.86,43.16,43.16,69.85,102.78,69.85,168.64Z"/>
        <path class="cls-4" d="M606.59,600.26c-18.3,113.53-116.74,200.24-235.44,200.24-77.67,0-146.66-37.12-190.21-94.6,67.2-1.05,148.18-12.56,233.29-35.1,72.31-19.15,138.08-43.73,192.36-70.54Z"/>
        <path class="cls-4" d="M132.65,562c0,54.05,17.98,103.91,48.29,143.9-14.62.23-28.59-.04-41.81-.8-74.47-4.25-125.11-24.04-134.19-58.32-9.36-35.35,27.32-79.19,93.71-120.89,10.59-6.67,21.95-13.27,34-19.77v55.88Z"/>
        <path class="cls-4" d="M643,580.98c-11.45,6.53-23.61,12.97-36.41,19.28,2.02-12.46,3.06-25.24,3.06-38.26v-173.57c11.89.36,23.25,1.08,34,2.17,63.55,6.45,106.09,25.63,114.34,56.77,10.32,38.97-35.3,88.25-114.99,133.61Z"/>
        <g>
          <path class="cls-1" d="M456.6,157.83c-25.16,4.31-27.14,7.81-29.58,52.26-2.44-44.45-4.42-47.95-29.58-52.26,25.16-4.31,27.14-7.81,29.58-52.26,2.44,44.45,4.42,47.95,29.58,52.26Z"/>
          <path class="cls-8" d="M456.6,157.83c-25.16,4.31-27.14,7.81-29.58,52.26-2.44-44.45-4.42-47.95-29.58-52.26,25.16-4.31,27.14-7.81,29.58-52.26,2.44,44.45,4.42,47.95,29.58,52.26Z"/>
        </g>
        <g>
          <path class="cls-1" d="M517.63,200.36c-19.77,4.24-21.33,7.67-23.24,51.33-1.92-43.66-3.47-47.09-23.24-51.33,19.77-4.24,21.33-7.67,23.24-51.33,1.92,43.66,3.47,47.09,23.24,51.33Z"/>
          <path class="cls-7" d="M517.63,200.36c-19.77,4.24-21.33,7.67-23.24,51.33-1.92-43.66-3.47-47.09-23.24-51.33,19.77-4.24,21.33-7.67,23.24-51.33,1.92,43.66,3.47,47.09,23.24,51.33Z"/>
        </g>
        <g>
          <path class="cls-1" d="M48.81,628.67c14.84,2.56,16.01,4.63,17.44,30.99,1.44-26.36,2.61-28.44,17.44-30.99-14.84-2.56-16.01-4.63-17.44-30.99-1.44,26.36-2.61,28.44-17.44,30.99Z"/>
          <path class="cls-3" d="M48.81,628.67c14.84,2.56,16.01,4.63,17.44,30.99,1.44-26.36,2.61-28.44,17.44-30.99-14.84-2.56-16.01-4.63-17.44-30.99-1.44,26.36-2.61,28.44-17.44,30.99Z"/>
        </g>
        <g>
          <path class="cls-1" d="M327.87,754.35c19.47,2.58,21,4.66,22.89,31.21,1.89-26.55,3.42-28.64,22.89-31.21-19.47-2.58-21-4.66-22.89-31.21-1.89,26.55-3.42,28.64-22.89,31.21Z"/>
          <path class="cls-2" d="M327.87,754.35c19.47,2.58,21,4.66,22.89,31.21,1.89-26.55,3.42-28.64,22.89-31.21-19.47-2.58-21-4.66-22.89-31.21-1.89,26.55-3.42,28.64-22.89,31.21Z"/>
        </g>
        <g>
          <path class="cls-1" d="M369.14,733.43c25.32,3.81,27.31,6.91,29.77,46.23,2.46-39.32,4.45-42.41,29.77-46.23-25.32-3.81-27.31-6.91-29.77-46.23-2.46,39.32-4.45,42.41-29.77,46.23Z"/>
          <path class="cls-5" d="M369.14,733.43c25.32,3.81,27.31,6.91,29.77,46.23,2.46-39.32,4.45-42.41,29.77-46.23-25.32-3.81-27.31-6.91-29.77-46.23-2.46,39.32-4.45,42.41-29.77,46.23Z"/>
        </g>
      </g>
      <g>
        <path class="cls-1" d="M359.19,413.12c-8.03,5-16.36,10.81-25.49,17.75-31.76,24.16-52.16,55.01-60.64,91.71-3.27,14.18-3.53,29.46-.77,45.46-4.26,1.69-8.88,3.68-12.94,6.83-4.41,3.42-8.07,8.39-9.79,13.3-1.71,4.86-1.22,9.93,1.32,14.06h-.19c-6.27.04-11.02-2.46-12.33-6.83-1.4-4.7,1.47-12.31,6.11-14.8,3.34-1.8,7.01-3.12,10.68-4.15,4.99-1.41,7.38-4.59,7.73-9.56.44-6.12,1.17-12.24,1.21-18.36.14-23.05.19-46.23-7.02-68.39-3.86-11.87-9.75-23.12-15.05-34.49-10.3-22.1-15.4-45.21-14.46-69.63.68-17.48,1.4-34.97,1.73-52.47.12-5.93-.33-12-1.52-17.8-2-9.76-7.72-14.69-17.63-15.03-10.72-.38-21.49-.16-32.21.31-9.91.43-16.83-3.27-20.88-12.48-2.15-4.91-4.95-9.52-7.21-14.39-2.19-4.72-.87-7.18,3.8-9.4,12.72-6.04,25.42-12.13,37.94-18.59,2.1-1.09,3.84-3.86,4.67-6.23,1.47-4.17,2.35-8.59,3.01-12.97.67-4.46,3.02-7.38,7.07-8.83,5.33-1.91,10.81-3.41,16.17-5.23,9.02-3.08,10.76-6.7,7.89-15.69-2.51-7.89-4.94-15.81-7.28-23.76-.34-1.16.03-2.53.07-3.81,1.24.25,2.68.17,3.71.78,11.72,6.97,21.68,16.07,30.85,26.05,14.31,15.59,29.5,30.37,41.34,48.15,12.36,18.56,20.96,38.73,28.33,59.66,3.67,10.44,8.64,20.4,13.18,30.47-4.43,4.27-7.21,9.73-8.3,16.3-.48,2.93-2.52,6.44-4.44,9.49-5.09,8.07-6.08,12.86.96,21.64.58.73,1.19,1.44,1.8,2.15.49.57.98,1.14,1.46,1.73,5.07,6.32,11.7,9.65,19.18,9.65,2.61,0,5.35-.4,8.16-1.2,2.3-.66,4.68-1.2,7.2-1.77.57-.12,1.15-.25,1.72-.38.03.19.06.38.09.57.51,3.49,1,6.79,1.2,10.03.55,9.09-2.67,15.31-10.43,20.15Z"/>
        <path class="cls-1" d="M426.38,594.98c1.16,1.06,1.58,3.79,1.12,5.43-.26.94-2.94,1.7-4.53,1.71-26.4.1-52.8.07-79.2.07h-77.81c-6.55,0-11.03-5.17-8.85-11.37,1.28-3.64,4.07-7.25,7.15-9.63,3.67-2.85,8.25-4.65,12.65-6.38,3.12-1.22,4.28-2.65,3.62-6.11-2.78-14.77-3.07-29.61.33-44.32,8.36-36.2,28.35-64.83,57.68-87.14,8.04-6.11,16.31-11.99,24.88-17.33,10.35-6.45,14.9-15.57,14.18-27.42-.33-5.49-1.39-10.94-2.06-16.41-.31-2.53-1.39-3.44-4.03-2.73-4.73,1.28-9.58,2.13-14.3,3.47-7.62,2.18-13.91.46-18.91-5.76-1.05-1.32-2.2-2.56-3.25-3.88-4.39-5.47-4.14-6.49-.44-12.36,2.42-3.83,4.85-8.1,5.57-12.45,1.2-7.23,4.89-12.13,10.95-15.49,3.53-1.97,4.18-3.94,2.05-7.58-1.91-3.26-2.99-7.03-4.17-10.67-.37-1.15.11-2.57.2-3.86,1.25.3,2.73.28,3.72.96,4.43,3.02,8.78,6.18,13.05,9.43,3.08,2.35,4.6,1.67,5.07-2.11.72-5.78,1.47-11.56,2.34-17.32.19-1.24.94-2.4,1.42-3.6,1.24.51,2.85.7,3.63,1.61,3.1,3.57,6.74,6.99,8.71,11.16,4.26,9.02,9.97,16.85,16.74,24.04,33.53,35.57,43.43,78.16,37.27,125.51-2.53,19.44-8.66,37.89-15.29,56.25-8.39,23.25-13.14,47.22-13.07,72.06.02,4.22.59,6.72,5.53,7.45,2.9.44,5.78,2.67,8.05,4.77Z"/>
        <path class="cls-1" d="M425.87,510.7c-8.39,23.25-13.14,47.22-13.07,72.06.02,4.22.59,6.72,5.53,7.45,2.9.44,5.78,2.67,8.05,4.77,1.16,1.06,1.58,3.79,1.12,5.43-.26.94-2.94,1.7-4.53,1.71-26.4.1-52.8.07-79.2.07h-77.81c-6.55,0-11.03-5.17-8.85-11.37,1.28-3.64,4.07-7.25,7.15-9.63,3.67-2.85,8.25-4.65,12.65-6.38,3.12-1.22,4.28-2.65,3.62-6.11-2.78-14.77-3.07-29.61.33-44.32,8.36-36.2,28.35-64.83,57.68-87.14,8.04-6.11,16.31-11.99,24.88-17.33,10.35-6.45,14.9-15.57,14.18-27.42-.33-5.49-1.39-10.94-2.06-16.41-.31-2.53-1.39-3.44-4.03-2.73-4.73,1.28-9.58,2.13-14.3,3.47-7.62,2.18-13.91.46-18.91-5.76-1.05-1.32-2.2-2.56-3.25-3.88-4.39-5.47-4.14-6.49-.44-12.36,2.42-3.83,4.85-8.1,5.57-12.45,1.2-7.23,4.89-12.13,10.95-15.49,3.53-1.97,4.18-3.94,2.05-7.58-1.91-3.26-2.99-7.03-4.17-10.67-.37-1.15.11-2.57.2-3.86,1.25.3,2.73.28,3.72.96,4.43,3.02,8.78,6.18,13.05,9.43,3.08,2.35,4.6,1.67,5.07-2.11.72-5.78,1.47-11.56,2.34-17.32.19-1.24.94-2.4,1.42-3.6,1.24.51,2.85.7,3.63,1.61,3.1,3.57,6.74,6.99,8.71,11.16,4.26,9.02,9.97,16.85,16.74,24.04,33.53,35.57,43.43,78.16,37.27,125.51-2.53,19.44-8.66,37.89-15.29,56.25Z"/>
        <path class="cls-1" d="M590.26,558.02c-9.23,26.67-31.84,43.44-60.79,44-31.38.61-62.77.18-94.17.16.99-4.06.13-9.74-3.49-13.08-2.53-2.33-6.33-5.44-11.01-6.55-.05-22.91,4.08-45.53,12.6-69.14,6.17-17.09,12.98-37.07,15.69-57.93,1.85-14.19,2.25-27.83,1.22-40.79,1.53,1.99,2.93,3.86,4.25,5.79,25.33,37.07,44.22,77.03,54.5,120.9,1.25,5.33,3.09,10.64,5.49,15.56,7.29,14.88,23.22,17.43,34.84,5.49,9.76-10.04,13.95-22.53,14.22-36.39.28-14.34-3.93-27.72-10.42-40.14-8.57-16.42-18.19-32.29-27.38-48.38-.84-1.46-2.06-2.72-2.75-4.24-.57-1.24-.61-2.73-.89-4.11,1.36.21,2.99,0,4.03.68,6.04,3.94,12.08,7.9,17.85,12.22,23.46,17.55,40.4,39.74,47.14,68.7,3.66,15.73,4.46,31.69-.93,47.25Z"/>
      </g>
    </g>
  </g>
</svg>